<?xml version="1.0" encoding="UTF-8"?><svg id="katman_2" xmlns="http://www.w3.org/2000/svg" viewBox="0 0 371.43 52.42"><defs><style>.cls-1{fill:#1d1d1b;}.cls-2{fill:#d81117;}</style></defs><g id="Layer_1"><path class="cls-1" d="M59.89,8.49h8.78c2.54,0,4.51.61,5.75,1.88.88.85,1.39,2,1.39,3.51v.12c0,2.42-1.39,3.88-3.15,4.66,2.27.85,3.88,2.24,3.88,5.03v.12c0,3.63-2.85,5.87-7.84,5.87h-8.81V8.49ZM70.42,15c0-1.27-.91-1.97-2.54-1.97h-2.69v3.97h2.6c1.67,0,2.63-.67,2.63-1.97v-.03ZM68.36,21h-3.18v4.15h3.21c1.7,0,2.69-.76,2.69-2.06v-.03c0-1.24-.94-2.06-2.73-2.06Z"/><path class="cls-1" d="M84.77,8.37h5.51l7.48,21.32h-5.72l-1.24-3.81h-6.66l-1.21,3.81h-5.6l7.45-21.32ZM89.44,21.51l-1.97-6.21-1.97,6.21h3.94Z"/><path class="cls-1" d="M102.12,32.87l2.21-3.06c-2.36-.33-4.54-1.27-6.45-2.94l2.91-3.97c1.73,1.42,3.69,2.39,5.75,2.39,1.45,0,2.21-.64,2.21-1.54v-.03c0-.85-.64-1.36-3.12-2.24-4-1.36-6.81-2.82-6.81-6.66v-.09c0-3.85,2.94-6.54,7.57-6.54,2.85,0,5.36.79,7.57,2.57l-2.76,4.06c-1.45-1.12-3.21-1.94-4.94-1.94-1.24,0-1.94.61-1.94,1.39v.03c0,.94.67,1.42,3.36,2.42,4.03,1.3,6.54,2.94,6.54,6.54v.06c0,3.66-2.48,6.06-6.21,6.54l-1.54,4.63-4.36-1.64Z"/><path class="cls-1" d="M116.56,8.49h5.45v8.39l5.84-8.39h6.27l-6.57,9.02,6.78,12.17h-6.36l-4.27-7.72-1.7,2.21v5.51h-5.45V8.49Z"/><path class="cls-1" d="M135.81,8.49h14.59v4.78h-9.2v3.48h8.3v4.51h-8.3v3.63h9.33v4.78h-14.72V8.49Z"/><path class="cls-1" d="M153.07,8.49h5.12l7.05,10.66v-10.66h5.36v21.19h-4.84l-7.33-11.11v11.11h-5.36V8.49Z"/><path class="cls-1" d="M177.98,13.4h-5.24v-4.91h15.93v4.91h-5.24v16.29h-5.45V13.4Z"/><path class="cls-1" d="M197.45,21.6v-13.11h3.51v13.08c0,3.42,1.67,5.21,4.39,5.21s4.36-1.73,4.36-5.09v-13.2h3.48v12.99c0,5.69-3.12,8.54-7.9,8.54s-7.84-2.88-7.84-8.42ZM200.78,3.68h3.48v3.24h-3.48v-3.24ZM206.38,3.68h3.45v3.24h-3.45v-3.24Z"/><path class="cls-1" d="M216.67,8.49h3.27l9.33,14.14v-14.14h3.42v21.19h-2.97l-9.6-14.56v14.56h-3.45V8.49Z"/><path class="cls-1" d="M236.56,3.65h3.51v3.24h-3.51v-3.24ZM236.56,8.49h3.51v21.19h-3.51V8.49Z"/><path class="cls-1" d="M242.38,8.49h3.81l5.21,16.02,5.21-16.02h3.69l-7.33,21.32h-3.24l-7.36-21.32Z"/><path class="cls-1" d="M262.42,8.49h13.35v3.18h-9.87v5.75h8.75v3.18h-8.75v5.9h10.02v3.18h-13.5V8.49Z"/><path class="cls-1" d="M278.71,8.49h7.66c2.42,0,4.39.73,5.66,2,1.12,1.12,1.76,2.73,1.76,4.66v.12c0,3.27-1.82,5.3-4.39,6.21l5,8.21h-4.06l-4.51-7.51c-.06.03-.15.03-.21.03h-3.39v7.48h-3.51V8.49ZM286,19.06c2.73,0,4.24-1.45,4.24-3.66v-.06c0-2.39-1.54-3.63-4.18-3.63h-3.85v7.36h3.78Z"/><path class="cls-1" d="M295.2,26.9l2.12-2.63c1.57,1.42,3.33,2.51,5.57,2.51,2.03,0,3.33-1.12,3.33-2.69v-.03c0-1.33-.7-2.21-4.06-3.45-4.03-1.51-6.12-3-6.12-6.39v-.06c0-3.48,2.79-5.93,6.72-5.93,2.45,0,4.72.79,6.66,2.48l-2,2.69c-1.45-1.18-3.06-2-4.75-2-1.91,0-3.09,1.06-3.09,2.45v.03c0,1.48.79,2.27,4.39,3.66,3.94,1.51,5.75,3.15,5.75,6.24v.06c0,3.72-2.91,6.12-6.87,6.12-2.73,0-5.36-.94-7.66-3.06Z"/><path class="cls-1" d="M312.61,3.65h3.51v3.24h-3.51v-3.24ZM312.61,8.49h3.51v21.19h-3.51V8.49Z"/><path class="cls-1" d="M324.24,11.76h-5.57v-3.27h14.65v3.27h-5.57v17.92h-3.51V11.76Z"/><path class="cls-1" d="M335.71,8.49h13.35v3.18h-9.87v5.75h8.75v3.18h-8.75v5.9h10.02v3.18h-13.5V8.49Z"/><path class="cls-1" d="M350.51,26.9l2.12-2.63c1.57,1.42,3.33,2.51,5.57,2.51,2.03,0,3.33-1.12,3.33-2.69v-.03c0-1.33-.7-2.21-4.06-3.45-4.03-1.51-6.12-3-6.12-6.39v-.06c0-3.48,2.79-5.93,6.72-5.93,2.45,0,4.72.79,6.66,2.48l-2,2.69c-1.45-1.18-3.06-2-4.75-2-1.91,0-3.09,1.06-3.09,2.45v.03c0,1.48.79,2.27,4.39,3.66,3.94,1.51,5.75,3.15,5.75,6.24v.06c0,3.72-2.91,6.12-6.87,6.12-2.73,0-5.36-.94-7.66-3.06Z"/><path class="cls-1" d="M367.92,3.65h3.51v3.24h-3.51v-3.24ZM367.92,8.49h3.51v21.19h-3.51V8.49Z"/><path class="cls-2" d="M24.53,18.74l-14.61,2.36,5.28,4.08-3.42,2.64L0,18.74l11.74-9.03,3.32,2.5-5.18,4.13,14.66,2.4ZM24.43,18.75l14.48-2.36-5.28-4.08,3.42-2.64,11.78,9.08-11.74,9.03-3.32-2.5,5.18-4.13-14.53-2.4ZM12.71,28.39l11.87,9.08,11.6-9.05-3.2-2.75-5.34,4.15-3.1-11.09-3.16,11.09-5.25-4.07-3.42,2.63ZM12.71,9.08L24.58,0l11.73,9.1-3.43,2.64-5.25-4.09-3.1,11.09-3.16-11.09-5.25,4.07-3.42-2.63Z"/><path class="cls-1" d="M18.09,41.43l-.75.23-.13-.68,1.11-.37h.56v4.82h-.79v-3.99Z"/><path class="cls-1" d="M22.37,43.3c-.24.27-.57.44-1,.44-.83,0-1.46-.54-1.46-1.51v-.02c0-.96.67-1.65,1.59-1.65.49,0,.84.15,1.13.44.34.34.55.86.55,1.85v.05c0,1.66-.7,2.61-1.85,2.61-.52,0-.92-.18-1.3-.48l.4-.63c.29.24.57.38.92.38.68,0,1.01-.7,1.03-1.48ZM22.34,42.18h0c0-.55-.32-.92-.84-.92s-.81.39-.81.92h0c0,.55.33.9.83.9s.83-.37.83-.89Z"/><path class="cls-1" d="M26.43,43.3c-.24.27-.57.44-1,.44-.83,0-1.46-.54-1.46-1.51v-.02c0-.96.67-1.65,1.59-1.65.49,0,.84.15,1.13.44.34.34.55.86.55,1.85v.05c0,1.66-.7,2.61-1.85,2.61-.52,0-.92-.18-1.3-.48l.4-.63c.29.24.57.38.92.38.68,0,1.01-.7,1.03-1.48ZM26.4,42.18h0c0-.55-.32-.92-.84-.92s-.81.39-.81.92h0c0,.55.33.9.83.9s.83-.37.83-.89Z"/><path class="cls-1" d="M27.9,44.84l.49-.56c.26.29.57.5,1.03.5s.79-.3.79-.76v-.02c0-.49-.42-.77-1.09-.77h-.24l-.1-.5,1.16-1.39h-1.81v-.71h2.8v.62l-1.21,1.39c.66.1,1.27.49,1.27,1.33v.02c0,.9-.65,1.5-1.57,1.5-.67,0-1.18-.27-1.53-.66Z"/><path class="cls-1" d="M59.45,37.49h2.59v5.28l3.23-5.28h3.01l-3.48,5.24,3.59,7.16h-2.98l-2.47-4.91-.91,1.4v3.51h-2.59v-12.4Z"/><path class="cls-1" d="M68.45,43.9v-.41c0-3.92,2.01-6.2,4.93-6.2s4.91,2.29,4.91,6.18v.41c0,3.9-2.01,6.2-4.93,6.2s-4.91-2.29-4.91-6.18ZM75.63,43.81v-.23c0-2.8-.99-4.11-2.28-4.11s-2.26,1.29-2.26,4.09v.23c0,2.8.98,4.11,2.28,4.11s2.26-1.29,2.26-4.09Z"/><path class="cls-1" d="M79.99,37.49h2.4l3.84,6.77v-6.77h2.53v12.4h-2.24l-4-7.05v7.05h-2.53v-12.4Z"/><path class="cls-1" d="M93.4,45l-3.52-7.51h2.82l2.01,4.77,2.03-4.77h2.74l-3.5,7.49v4.91h-2.59v-4.89Z"/><path class="cls-1" d="M102.24,37.43h2.61l3.77,12.45h-2.65l-.73-2.59h-3.48l-.71,2.59h-2.55l3.75-12.45ZM104.62,45.19l-1.1-4.08-1.14,4.08h2.24Z"/><path class="cls-1" d="M113.27,45.63v-8.15h2.59v8.27c0,1.44.68,2.11,1.72,2.11s1.72-.66,1.72-2.09v-8.29h2.57v8.13c0,3.03-1.74,4.45-4.31,4.45s-4.29-1.43-4.29-4.43Z"/><path class="cls-1" d="M126.4,45l-3.52-7.51h2.82l2.01,4.77,2.03-4.77h2.74l-3.5,7.49v4.91h-2.59v-4.89Z"/><path class="cls-1" d="M132.58,43.83v-.28c0-3.83,2.28-6.2,5.47-6.2,1.27,0,2.4.37,3.44,1.17l-1.43,1.95c-.37-.39-.98-.87-1.99-.87-1.66,0-2.84,1.47-2.84,3.95v.25c0,2.87,1.33,4.06,2.86,4.06.44,0,.87-.11,1.1-.25v-2.69h-1.83v-2.09h4.25v6.15c-1.04.6-2.2,1.06-3.69,1.06-2.99,0-5.33-2.07-5.33-6.2Z"/><path class="cls-1" d="M143.35,45.63v-8.15h2.59v8.27c0,1.44.68,2.11,1.72,2.11s1.72-.66,1.72-2.09v-8.29h2.57v8.13c0,3.03-1.74,4.45-4.31,4.45s-4.29-1.43-4.29-4.43Z"/><path class="cls-1" d="M153.94,37.49h2.59v10.19h4.06v2.21h-6.65v-12.4Z"/><path class="cls-1" d="M164.85,37.43h2.61l3.77,12.45h-2.65l-.73-2.59h-3.48l-.71,2.59h-2.55l3.75-12.45ZM167.22,45.19l-1.1-4.08-1.14,4.08h2.24Z"/><path class="cls-1" d="M172.44,37.49h2.65l2.38,4.8,2.36-4.8h2.67v12.4h-2.53v-7.72l-2.49,4.92h-.04l-2.49-4.89v7.69h-2.49v-12.4Z"/><path class="cls-1" d="M187.44,37.43h2.61l3.77,12.45h-2.65l-.73-2.59h-3.48l-.71,2.59h-2.55l3.75-12.45ZM189.82,45.19l-1.1-4.08-1.14,4.08h2.24Z"/><path class="cls-1" d="M197.73,37.49h2.72l2.11,8.33,2.11-8.33h2.65l-3.54,12.45h-2.51l-3.54-12.45Z"/><path class="cls-1" d="M208.55,37.49h7.03v2.2h-4.46v2.87h3.94v2.2h-3.94v2.94h4.54v2.2h-7.11v-12.4Z"/><path class="cls-1" d="M223.8,37.43h2.61l3.77,12.45h-2.65l-.73-2.59h-3.48l-.71,2.59h-2.55l3.75-12.45ZM226.18,45.19l-1.1-4.08-1.14,4.08h2.24Z"/><path class="cls-1" d="M231.39,37.49h3.83c1.41,0,2.59.37,3.38,1.1.71.66,1.12,1.63,1.12,2.91v.11c0,1.77-.87,2.87-2.07,3.49l2.38,4.8h-2.88l-2.03-4.2h-1.14v4.2h-2.59v-12.4ZM235,43.58c1.41,0,2.12-.78,2.12-1.97,0-1.31-.77-1.95-2.18-1.95h-.97v3.92h1.02Z"/><path class="cls-1" d="M244.29,37.43h2.61l3.77,12.45h-2.65l-.73-2.59h-3.48l-.71,2.59h-2.55l3.75-12.45ZM246.67,45.19l-1.1-4.08-1.14,4.08h2.24Z"/><path class="cls-1" d="M252.92,51.66l1.24-1.7c-1.12-.12-2.32-.6-3.4-1.59l1.54-1.84c.58.51,1.45,1.29,2.59,1.29.95,0,1.51-.57,1.51-1.28,0-.55-.31-.97-1.83-1.81-2.05-1.12-3.25-2.09-3.25-3.83v-.04c0-2.09,1.66-3.51,4.08-3.51,1.16,0,2.57.39,3.65,1.44l-1.58,1.82c-.48-.48-1.24-1.06-2.18-1.06-.77,0-1.35.43-1.35,1.08,0,.58.31,1.01,2.18,2.07,1.91,1.08,2.9,2.04,2.9,3.68v.04c0,1.77-1.26,3.06-2.98,3.45l-.99,2.53-2.12-.76Z"/><path class="cls-1" d="M262.12,39.72h-2.57v-2.23h7.73v2.23h-2.57v10.17h-2.59v-10.17Z"/><path class="cls-1" d="M268.82,37.49h2.57v12.4h-2.57v-12.4Z"/><path class="cls-1" d="M273.55,37.49h3.83c1.41,0,2.59.37,3.38,1.1.71.66,1.12,1.63,1.12,2.91v.11c0,1.77-.87,2.87-2.07,3.49l2.38,4.8h-2.88l-2.03-4.2h-1.14v4.2h-2.59v-12.4ZM277.16,43.58c1.41,0,2.12-.78,2.12-1.97,0-1.31-.77-1.95-2.18-1.95h-.97v3.92h1.02Z"/><path class="cls-1" d="M283.55,37.49h2.65l2.38,4.8,2.36-4.8h2.67v12.4h-2.53v-7.72l-2.49,4.92h-.04l-2.49-4.89v7.69h-2.49v-12.4Z"/><path class="cls-1" d="M298.56,37.43h2.61l3.77,12.45h-2.65l-.73-2.59h-3.48l-.71,2.59h-2.55l3.75-12.45ZM300.93,45.19l-1.1-4.08-1.14,4.08h2.24Z"/><path class="cls-1" d="M309.7,37.49h2.65l2.38,4.8,2.36-4.8h2.67v12.4h-2.53v-7.72l-2.49,4.92h-.04l-2.49-4.89v7.69h-2.49v-12.4Z"/><path class="cls-1" d="M321.81,37.49h7.03v2.2h-4.46v2.87h3.94v2.2h-3.94v2.94h4.54v2.2h-7.11v-12.4Z"/><path class="cls-1" d="M330.61,37.49h3.83c1.41,0,2.59.37,3.38,1.1.71.66,1.12,1.63,1.12,2.91v.11c0,1.77-.87,2.87-2.07,3.49l2.38,4.8h-2.88l-2.03-4.2h-1.14v4.2h-2.59v-12.4ZM334.22,43.58c1.41,0,2.12-.78,2.12-1.97,0-1.31-.77-1.95-2.18-1.95h-.97v3.92h1.02Z"/><path class="cls-1" d="M340.61,37.49h2.59v5.28l3.23-5.28h3.01l-3.48,5.24,3.59,7.16h-2.97l-2.47-4.91-.91,1.4v3.51h-2.59v-12.4Z"/><path class="cls-1" d="M350.73,37.49h7.03v2.2h-4.46v2.87h3.94v2.2h-3.94v2.94h4.54v2.2h-7.11v-12.4Z"/><path class="cls-1" d="M359.23,48.04l4.71-8.4h-4.56v-2.16h7.59v1.84l-4.71,8.4h4.71v2.16h-7.75v-1.84Z"/><path class="cls-1" d="M368.81,37.49h2.57v12.4h-2.57v-12.4ZM368.9,34.67h2.4v2.04h-2.4v-2.04Z"/></g></svg>